<mxfile host="65bd71144e">
    <diagram id="sfbpxGeCNHBWjV3Nfpo7" name="Page-1">
        <mxGraphModel dx="973" dy="911" grid="1" gridSize="10" guides="1" tooltips="1" connect="1" arrows="1" fold="1" page="1" pageScale="1" pageWidth="850" pageHeight="1100" math="0" shadow="0">
            <root>
                <mxCell id="0"/>
                <mxCell id="1" parent="0"/>
                <mxCell id="5" value="&#xa;  &#xa;    &amp;lt;_mxfile_host_app_diagrams_net_modified_2024_11_20T08_30_00_000Z_agent_Mozilla_5_0_Windows_NT_10_0_Win64_x64_AppleWebKit_537_36_KHTML&amp;gt;&amp;lt;diagram id=&quot;jwt-refresh-flowchart&quot; name=&quot;JWT + Refresh Token Flow&quot;&amp;gt;&#xa;    &#xa;  &#xa;  &#xa;    &amp;lt;_mxfile_host_app_diagrams_net_modified_2024_11_20T08_30_00_000Z_agent_Mozilla_5_0_Windows_NT_10_0_Win64_x64_AppleWebKit_537_36_KHTML&amp;gt;&amp;lt;mxGraphModel dx=&quot;1295&quot; dy=&quot;728&quot; grid=&quot;1&quot; gridSize=&quot;10&quot; guides=&quot;1&quot; tooltips=&quot;1&quot; connect=&quot;1&quot; arrows=&quot;1&quot; fold=&quot;1&quot; page=&quot;1&quot; pageScale=&quot;1&quot; pageWidth=&quot;850&quot; pageHeight=&quot;1100&quot; math=&quot;0&quot; shadow=&quot;0&quot;&amp;gt;&#xa;    &#xa;  &#xa;  &#xa;    &amp;lt;_mxfile_host_app_diagrams_net_modified_2024_11_20T08_30_00_000Z_agent_Mozilla_5_0_Windows_NT_10_0_Win64_x64_AppleWebKit_537_36_KHTML&amp;gt;&amp;lt;root&amp;gt;&#xa;    &#xa;  &#xa;  &#xa;    &amp;lt;_mxfile_host_app_diagrams_net_modified_2024_11_20T08_30_00_000Z_agent_Mozilla_5_0_Windows_NT_10_0_Win64_x64_AppleWebKit_537_36_KHTML&amp;gt;&amp;lt;mxCell id=&quot;0&quot;/&amp;gt;&#xa;    &#xa;  &#xa;  &#xa;    &amp;lt;_mxfile_host_app_diagrams_net_modified_2024_11_20T08_30_00_000Z_agent_Mozilla_5_0_Windows_NT_10_0_Win64_x64_AppleWebKit_537_36_KHTML&amp;gt;&amp;lt;mxCell id=&quot;1&quot; parent=&quot;0&quot;/&amp;gt;&#xa;    &#xa;  &#xa;  &#xa;    &amp;lt;_mxfile_host_app_diagrams_net_modified_2024_11_20T08_30_00_000Z_agent_Mozilla_5_0_Windows_NT_10_0_Win64_x64_AppleWebKit_537_36_KHTML&amp;gt;&#xa;    &#xa;  &#xa;  &#xa;    &amp;lt;_mxfile_host_app_diagrams_net_modified_2024_11_20T08_30_00_000Z_agent_Mozilla_5_0_Windows_NT_10_0_Win64_x64_AppleWebKit_537_36_KHTML&amp;gt;&amp;lt;mxCell id=&quot;2&quot; value=&quot;Client Application&quot; style=&quot;swimlane;startSize=20;&quot; vertex=&quot;1&quot; parent=&quot;1&quot;&amp;gt;&#xa;    &#xa;  &#xa;  &#xa;    &amp;lt;_mxfile_host_app_diagrams_net_modified_2024_11_20T08_30_00_000Z_agent_Mozilla_5_0_Windows_NT_10_0_Win64_x64_AppleWebKit_537_36_KHTML&amp;gt;&amp;lt;mxGeometry x=&quot;60&quot; y=&quot;80&quot; width=&quot;180&quot; height=&quot;600&quot; as=&quot;geometry&quot;/&amp;gt;&#xa;    &#xa;  &#xa;  &#xa;    &amp;lt;_mxfile_host_app_diagrams_net_modified_2024_11_20T08_30_00_000Z_agent_Mozilla_5_0_Windows_NT_10_0_Win64_x64_AppleWebKit_537_36_KHTML&amp;gt;&amp;lt;/mxCell&amp;gt;&#xa;    &#xa;  &#xa;  &#xa;    &amp;lt;_mxfile_host_app_diagrams_net_modified_2024_11_20T08_30_00_000Z_agent_Mozilla_5_0_Windows_NT_10_0_Win64_x64_AppleWebKit_537_36_KHTML&amp;gt;&amp;lt;mxCell id=&quot;3&quot; value=&quot;Start Login&quot; style=&quot;ellipse;whiteSpace=wrap;html=1;&quot; vertex=&quot;1&quot; parent=&quot;2&quot;&amp;gt;&#xa;    &#xa;  &#xa;  &#xa;    &amp;lt;_mxfile_host_app_diagrams_net_modified_2024_11_20T08_30_00_000Z_agent_Mozilla_5_0_Windows_NT_10_0_Win64_x64_AppleWebKit_537_36_KHTML&amp;gt;&amp;lt;mxGeometry x=&quot;30&quot; y=&quot;40&quot; width=&quot;120&quot; height=&quot;60&quot; as=&quot;geometry&quot;/&amp;gt;&#xa;    &#xa;  &#xa;  &#xa;    &amp;lt;_mxfile_host_app_diagrams_net_modified_2024_11_20T08_30_00_000Z_agent_Mozilla_5_0_Windows_NT_10_0_Win64_x64_AppleWebKit_537_36_KHTML&amp;gt;&amp;lt;/mxCell&amp;gt;&#xa;    &#xa;  &#xa;  &#xa;    &amp;lt;_mxfile_host_app_diagrams_net_modified_2024_11_20T08_30_00_000Z_agent_Mozilla_5_0_Windows_NT_10_0_Win64_x64_AppleWebKit_537_36_KHTML&amp;gt;&amp;lt;mxCell id=&quot;4&quot; value=&quot;User Clicks Logout&quot; style=&quot;ellipse;whiteSpace=wrap;html=1;&quot; vertex=&quot;1&quot; parent=&quot;2&quot;&amp;gt;&#xa;    &#xa;  &#xa;  &#xa;    &amp;lt;_mxfile_host_app_diagrams_net_modified_2024_11_20T08_30_00_000Z_agent_Mozilla_5_0_Windows_NT_10_0_Win64_x64_AppleWebKit_537_36_KHTML&amp;gt;&amp;lt;mxGeometry x=&quot;30&quot; y=&quot;500&quot; width=&quot;120&quot; height=&quot;60&quot; as=&quot;geometry&quot;/&amp;gt;&#xa;    &#xa;  &#xa;  &#xa;    &amp;lt;_mxfile_host_app_diagrams_net_modified_2024_11_20T08_30_00_000Z_agent_Mozilla_5_0_Windows_NT_10_0_Win64_x64_AppleWebKit_537_36_KHTML&amp;gt;&amp;lt;/mxCell&amp;gt;&#xa;    &#xa;  &#xa;  &#xa;    &amp;lt;_mxfile_host_app_diagrams_net_modified_2024_11_20T08_30_00_000Z_agent_Mozilla_5_0_Windows_NT_10_0_Win64_x64_AppleWebKit_537_36_KHTML&amp;gt;&amp;lt;mxCell id=&quot;5&quot; value=&quot;Express Server&quot; style=&quot;swimlane;startSize=20;&quot; vertex=&quot;1&quot; parent=&quot;1&quot;&amp;gt;&#xa;    &#xa;  &#xa;  &#xa;    &amp;lt;_mxfile_host_app_diagrams_net_modified_2024_11_20T08_30_00_000Z_agent_Mozilla_5_0_Windows_NT_10_0_Win64_x64_AppleWebKit_537_36_KHTML&amp;gt;&amp;lt;mxGeometry x=&quot;440&quot; y=&quot;80&quot; width=&quot;280&quot; height=&quot;600&quot; as=&quot;geometry&quot;/&amp;gt;&#xa;    &#xa;  &#xa;  &#xa;    &amp;lt;_mxfile_host_app_diagrams_net_modified_2024_11_20T08_30_00_000Z_agent_Mozilla_5_0_Windows_NT_10_0_Win64_x64_AppleWebKit_537_36_KHTML&amp;gt;&amp;lt;/mxCell&amp;gt;&#xa;    &#xa;  &#xa;  &#xa;    &amp;lt;_mxfile_host_app_diagrams_net_modified_2024_11_20T08_30_00_000Z_agent_Mozilla_5_0_Windows_NT_10_0_Win64_x64_AppleWebKit_537_36_KHTML&amp;gt;&amp;lt;mxCell id=&quot;6&quot; value=&quot;Validate Credentials (Email/Password)&quot; style=&quot;rounded=1;whiteSpace=wrap;html=1;&quot; vertex=&quot;1&quot; parent=&quot;5&quot;&amp;gt;&#xa;    &#xa;  &#xa;  &#xa;    &amp;lt;_mxfile_host_app_diagrams_net_modified_2024_11_20T08_30_00_000Z_agent_Mozilla_5_0_Windows_NT_10_0_Win64_x64_AppleWebKit_537_36_KHTML&amp;gt;&amp;lt;mxGeometry x=&quot;80&quot; y=&quot;40&quot; width=&quot;120&quot; height=&quot;60&quot; as=&quot;geometry&quot;/&amp;gt;&#xa;    &#xa;  &#xa;  &#xa;    &amp;lt;_mxfile_host_app_diagrams_net_modified_2024_11_20T08_30_00_000Z_agent_Mozilla_5_0_Windows_NT_10_0_Win64_x64_AppleWebKit_537_36_KHTML&amp;gt;&amp;lt;/mxCell&amp;gt;&#xa;    &#xa;  &#xa;  &#xa;    &amp;lt;_mxfile_host_app_diagrams_net_modified_2024_11_20T08_30_00_000Z_agent_Mozilla_5_0_Windows_NT_10_0_Win64_x64_AppleWebKit_537_36_KHTML&amp;gt;&amp;lt;mxCell id=&quot;7&quot; value=&quot;Generate Access Token (short-lived) &amp;amp;amp; Refresh Token (long-lived)&quot; style=&quot;rounded=1;whiteSpace=wrap;html=1;&quot; vertex=&quot;1&quot; parent=&quot;5&quot;&amp;gt;&#xa;    &#xa;  &#xa;  &#xa;    &amp;lt;_mxfile_host_app_diagrams_net_modified_2024_11_20T08_30_00_000Z_agent_Mozilla_5_0_Windows_NT_10_0_Win64_x64_AppleWebKit_537_36_KHTML&amp;gt;&amp;lt;mxGeometry x=&quot;60&quot; y=&quot;140&quot; width=&quot;160&quot; height=&quot;60&quot; as=&quot;geometry&quot;/&amp;gt;&#xa;    &#xa;  &#xa;  &#xa;    &amp;lt;_mxfile_host_app_diagrams_net_modified_2024_11_20T08_30_00_000Z_agent_Mozilla_5_0_Windows_NT_10_0_Win64_x64_AppleWebKit_537_36_KHTML&amp;gt;&amp;lt;/mxCell&amp;gt;&#xa;    &#xa;  &#xa;  &#xa;    &amp;lt;_mxfile_host_app_diagrams_net_modified_2024_11_20T08_30_00_000Z_agent_Mozilla_5_0_Windows_NT_10_0_Win64_x64_AppleWebKit_537_36_KHTML&amp;gt;&amp;lt;mxCell id=&quot;8&quot; value=&quot;Set Refresh Token as httpOnly Cookie&quot; style=&quot;rounded=1;whiteSpace=wrap;html=1;&quot; vertex=&quot;1&quot; parent=&quot;5&quot;&amp;gt;&#xa;    &#xa;  &#xa;  &#xa;    &amp;lt;_mxfile_host_app_diagrams_net_modified_2024_11_20T08_30_00_000Z_agent_Mozilla_5_0_Windows_NT_10_0_Win64_x64_AppleWebKit_537_36_KHTML&amp;gt;&amp;lt;mxGeometry x=&quot;60&quot; y=&quot;240&quot; width=&quot;160&quot; height=&quot;60&quot; as=&quot;geometry&quot;/&amp;gt;&#xa;    &#xa;  &#xa;  &#xa;    &amp;lt;_mxfile_host_app_diagrams_net_modified_2024_11_20T08_30_00_000Z_agent_Mozilla_5_0_Windows_NT_10_0_Win64_x64_AppleWebKit_537_36_KHTML&amp;gt;&amp;lt;/mxCell&amp;gt;&#xa;    &#xa;  &#xa;  &#xa;    &amp;lt;_mxfile_host_app_diagrams_net_modified_2024_11_20T08_30_00_000Z_agent_Mozilla_5_0_Windows_NT_10_0_Win64_x64_AppleWebKit_537_36_KHTML&amp;gt;&amp;lt;mxCell id=&quot;9&quot; value=&quot;Verify Access Token&quot; style=&quot;rounded=1;whiteSpace=wrap;html=1;&quot; vertex=&quot;1&quot; parent=&quot;5&quot;&amp;gt;&#xa;    &#xa;  &#xa;  &#xa;    &amp;lt;_mxfile_host_app_diagrams_net_modified_2024_11_20T08_30_00_000Z_agent_Mozilla_5_0_Windows_NT_10_0_Win64_x64_AppleWebKit_537_36_KHTML&amp;gt;&amp;lt;mxGeometry x=&quot;80&quot; y=&quot;340&quot; width=&quot;120&quot; height=&quot;60&quot; as=&quot;geometry&quot;/&amp;gt;&#xa;    &#xa;  &#xa;  &#xa;    &amp;lt;_mxfile_host_app_diagrams_net_modified_2024_11_20T08_30_00_000Z_agent_Mozilla_5_0_Windows_NT_10_0_Win64_x64_AppleWebKit_537_36_KHTML&amp;gt;&amp;lt;/mxCell&amp;gt;&#xa;    &#xa;  &#xa;  &#xa;    &amp;lt;_mxfile_host_app_diagrams_net_modified_2024_11_20T08_30_00_000Z_agent_Mozilla_5_0_Windows_NT_10_0_Win64_x64_AppleWebKit_537_36_KHTML&amp;gt;&amp;lt;mxCell id=&quot;10&quot; value=&quot;Read Refresh Token from Cookie&quot; style=&quot;rounded=1;whiteSpace=wrap;html=1;&quot; vertex=&quot;1&quot; parent=&quot;5&quot;&amp;gt;&#xa;    &#xa;  &#xa;  &#xa;    &amp;lt;_mxfile_host_app_diagrams_net_modified_2024_11_20T08_30_00_000Z_agent_Mozilla_5_0_Windows_NT_10_0_Win64_x64_AppleWebKit_537_36_KHTML&amp;gt;&amp;lt;mxGeometry x=&quot;80&quot; y=&quot;440&quot; width=&quot;120&quot; height=&quot;60&quot; as=&quot;geometry&quot;/&amp;gt;&#xa;    &#xa;  &#xa;  &#xa;    &amp;lt;_mxfile_host_app_diagrams_net_modified_2024_11_20T08_30_00_000Z_agent_Mozilla_5_0_Windows_NT_10_0_Win64_x64_AppleWebKit_537_36_KHTML&amp;gt;&amp;lt;/mxCell&amp;gt;&#xa;    &#xa;  &#xa;  &#xa;    &amp;lt;_mxfile_host_app_diagrams_net_modified_2024_11_20T08_30_00_000Z_agent_Mozilla_5_0_Windows_NT_10_0_Win64_x64_AppleWebKit_537_36_KHTML&amp;gt;&amp;lt;mxCell id=&quot;11&quot; value=&quot;Database (refreshTokenStore)&quot; style=&quot;swimlane;startSize=20;&quot; vertex=&quot;1&quot; parent=&quot;1&quot;&amp;gt;&#xa;    &#xa;  &#xa;  &#xa;    &amp;lt;_mxfile_host_app_diagrams_net_modified_2024_11_20T08_30_00_000Z_agent_Mozilla_5_0_Windows_NT_10_0_Win64_x64_AppleWebKit_537_36_KHTML&amp;gt;&amp;lt;mxGeometry x=&quot;780&quot; y=&quot;80&quot; width=&quot;200&quot; height=&quot;600&quot; as=&quot;geometry&quot;/&amp;gt;&#xa;    &#xa;  &#xa;  &#xa;    &amp;lt;_mxfile_host_app_diagrams_net_modified_2024_11_20T08_30_00_000Z_agent_Mozilla_5_0_Windows_NT_10_0_Win64_x64_AppleWebKit_537_36_KHTML&amp;gt;&amp;lt;/mxCell&amp;gt;&#xa;    &#xa;  &#xa;  &#xa;    &amp;lt;_mxfile_host_app_diagrams_net_modified_2024_11_20T08_30_00_000Z_agent_Mozilla_5_0_Windows_NT_10_0_Win64_x64_AppleWebKit_537_36_KHTML&amp;gt;&amp;lt;mxCell id=&quot;12&quot; value=&quot;Store Refresh Token Hash&quot; style=&quot;rounded=1;whiteSpace=wrap;html=1;&quot; vertex=&quot;1&quot; parent=&quot;11&quot;&amp;gt;&#xa;    &#xa;  &#xa;  &#xa;    &amp;lt;_mxfile_host_app_diagrams_net_modified_2024_11_20T08_30_00_000Z_agent_Mozilla_5_0_Windows_NT_10_0_Win64_x64_AppleWebKit_537_36_KHTML&amp;gt;&amp;lt;mxGeometry x=&quot;40&quot; y=&quot;170&quot; width=&quot;120&quot; height=&quot;60&quot; as=&quot;geometry&quot;/&amp;gt;&#xa;    &#xa;  &#xa;  &#xa;    &amp;lt;_mxfile_host_app_diagrams_net_modified_2024_11_20T08_30_00_000Z_agent_Mozilla_5_0_Windows_NT_10_0_Win64_x64_AppleWebKit_537_36_KHTML&amp;gt;&amp;lt;/mxCell&amp;gt;&#xa;    &#xa;  &#xa;  &#xa;    &amp;lt;_mxfile_host_app_diagrams_net_modified_2024_11_20T08_30_00_000Z_agent_Mozilla_5_0_Windows_NT_10_0_Win64_x64_AppleWebKit_537_36_KHTML&amp;gt;&amp;lt;mxCell id=&quot;13&quot; value=&quot;Lookup &amp;amp;amp; Validate Token&quot; style=&quot;rhombus;whiteSpace=wrap;html=1;&quot; vertex=&quot;1&quot; parent=&quot;11&quot;&amp;gt;&#xa;    &#xa;  &#xa;  &#xa;    &amp;lt;_mxfile_host_app_diagrams_net_modified_2024_11_20T08_30_00_000Z_agent_Mozilla_5_0_Windows_NT_10_0_Win64_x64_AppleWebKit_537_36_KHTML&amp;gt;&amp;lt;mxGeometry x=&quot;40&quot; y=&quot;420&quot; width=&quot;120&quot; height=&quot;60&quot; as=&quot;geometry&quot;/&amp;gt;&#xa;    &#xa;  &#xa;  &#xa;    &amp;lt;_mxfile_host_app_diagrams_net_modified_2024_11_20T08_30_00_000Z_agent_Mozilla_5_0_Windows_NT_10_0_Win64_x64_AppleWebKit_537_36_KHTML&amp;gt;&amp;lt;/mxCell&amp;gt;&#xa;    &#xa;  &#xa;  &#xa;    &amp;lt;_mxfile_host_app_diagrams_net_modified_2024_11_20T08_30_00_000Z_agent_Mozilla_5_0_Windows_NT_10_0_Win64_x64_AppleWebKit_537_36_KHTML&amp;gt;&amp;lt;mxCell id=&quot;14&quot; value=&quot;Delete Token Hash&quot; style=&quot;rounded=1;whiteSpace=wrap;html=1;&quot; vertex=&quot;1&quot; parent=&quot;11&quot;&amp;gt;&#xa;    &#xa;  &#xa;  &#xa;    &amp;lt;_mxfile_host_app_diagrams_net_modified_2024_11_20T08_30_00_000Z_agent_Mozilla_5_0_Windows_NT_10_0_Win64_x64_AppleWebKit_537_36_KHTML&amp;gt;&amp;lt;mxGeometry x=&quot;40&quot; y=&quot;520&quot; width=&quot;120&quot; height=&quot;60&quot; as=&quot;geometry&quot;/&amp;gt;&#xa;    &#xa;  &#xa;  &#xa;    &amp;lt;_mxfile_host_app_diagrams_net_modified_2024_11_20T08_30_00_000Z_agent_Mozilla_5_0_Windows_NT_10_0_Win64_x64_AppleWebKit_537_36_KHTML&amp;gt;&amp;lt;/mxCell&amp;gt;&#xa;    &#xa;  &#xa;  &#xa;    &amp;lt;_mxfile_host_app_diagrams_net_modified_2024_11_20T08_30_00_000Z_agent_Mozilla_5_0_Windows_NT_10_0_Win64_x64_AppleWebKit_537_36_KHTML&amp;gt;&amp;lt;mxCell id=&quot;15&quot; value=&quot;Send Email/Password&quot; style=&quot;endArrow=classic;html=1;entryX=0;entryY=0.5;entryDx=0;entryDy=0;&quot; edge=&quot;1&quot; parent=&quot;1&quot; source=&quot;3&quot; target=&quot;6&quot;&amp;gt;&#xa;    &#xa;  &#xa;  &#xa;    &amp;lt;_mxfile_host_app_diagrams_net_modified_2024_11_20T08_30_00_000Z_agent_Mozilla_5_0_Windows_NT_10_0_Win64_x64_AppleWebKit_537_36_KHTML&amp;gt;&amp;lt;mxGeometry width=&quot;50&quot; height=&quot;50&quot; relative=&quot;1&quot; as=&quot;geometry&quot;&amp;gt;&#xa;    &#xa;  &#xa;  &#xa;    &amp;lt;_mxfile_host_app_diagrams_net_modified_2024_11_20T08_30_00_000Z_agent_Mozilla_5_0_Windows_NT_10_0_Win64_x64_AppleWebKit_537_36_KHTML&amp;gt;&amp;lt;mxPoint x=&quot;240&quot; y=&quot;110&quot; as=&quot;sourcePoint&quot;/&amp;gt;&#xa;    &#xa;  &#xa;  &#xa;    &amp;lt;_mxfile_host_app_diagrams_net_modified_2024_11_20T08_30_00_000Z_agent_Mozilla_5_0_Windows_NT_10_0_Win64_x64_AppleWebKit_537_36_KHTML&amp;gt;&amp;lt;mxPoint x=&quot;440&quot; y=&quot;110&quot; as=&quot;targetPoint&quot;/&amp;gt;&#xa;    &#xa;  &#xa;  &#xa;    &amp;lt;_mxfile_host_app_diagrams_net_modified_2024_11_20T08_30_00_000Z_agent_Mozilla_5_0_Windows_NT_10_0_Win64_x64_AppleWebKit_537_36_KHTML&amp;gt;&amp;lt;/mxGeometry&amp;gt;&#xa;    &#xa;  &#xa;  &#xa;    &amp;lt;_mxfile_host_app_diagrams_net_modified_2024_11_20T08_30_00_000Z_agent_Mozilla_5_0_Windows_NT_10_0_Win64_x64_AppleWebKit_537_36_KHTML&amp;gt;&amp;lt;/mxCell&amp;gt;&#xa;    &#xa;  &#xa;  &#xa;    &amp;lt;_mxfile_host_app_diagrams_net_modified_2024_11_20T08_30_00_000Z_agent_Mozilla_5_0_Windows_NT_10_0_Win64_x64_AppleWebKit_537_36_KHTML&amp;gt;&amp;lt;mxCell id=&quot;16&quot; value=&quot;Valid?&quot; style=&quot;text;html=1;align=center;verticalAlign=middle;resizable=0;points=[];autosize=1;strokeColor=none;fillColor=none;&quot; vertex=&quot;1&quot; parent=&quot;1&quot;&amp;gt;&#xa;    &#xa;  &#xa;  &#xa;    &amp;lt;_mxfile_host_app_diagrams_net_modified_2024_11_20T08_30_00_000Z_agent_Mozilla_5_0_Windows_NT_10_0_Win64_x64_AppleWebKit_537_36_KHTML&amp;gt;&amp;lt;mxGeometry x=&quot;340&quot; y=&quot;120&quot; width=&quot;50&quot; height=&quot;20&quot; as=&quot;geometry&quot;/&amp;gt;&#xa;    &#xa;  &#xa;  &#xa;    &amp;lt;_mxfile_host_app_diagrams_net_modified_2024_11_20T08_30_00_000Z_agent_Mozilla_5_0_Windows_NT_10_0_Win64_x64_AppleWebKit_537_36_KHTML&amp;gt;&amp;lt;/mxCell&amp;gt;&#xa;    &#xa;  &#xa;  &#xa;    &amp;lt;_mxfile_host_app_diagrams_net_modified_2024_11_20T08_30_00_000Z_agent_Mozilla_5_0_Windows_NT_10_0_Win64_x64_AppleWebKit_537_36_KHTML&amp;gt;&amp;lt;mxCell id=&quot;17&quot; value=&quot;&quot; style=&quot;endArrow=classic;html=1;entryX=0.5;entryY=0;entryDx=0;entryDy=0;&quot; edge=&quot;1&quot; parent=&quot;1&quot; source=&quot;6&quot; target=&quot;7&quot;&amp;gt;&#xa;    &#xa;  &#xa;  &#xa;    &amp;lt;_mxfile_host_app_diagrams_net_modified_2024_11_20T08_30_00_000Z_agent_Mozilla_5_0_Windows_NT_10_0_Win64_x64_AppleWebKit_537_36_KHTML&amp;gt;&amp;lt;mxGeometry width=&quot;50&quot; height=&quot;50&quot; relative=&quot;1&quot; as=&quot;geometry&quot;&amp;gt;&#xa;    &#xa;  &#xa;  &#xa;    &amp;lt;_mxfile_host_app_diagrams_net_modified_2024_11_20T08_30_00_000Z_agent_Mozilla_5_0_Windows_NT_10_0_Win64_x64_AppleWebKit_537_36_KHTML&amp;gt;&amp;lt;mxPoint x=&quot;500&quot; y=&quot;140&quot; as=&quot;sourcePoint&quot;/&amp;gt;&#xa;    &#xa;  &#xa;  &#xa;    &amp;lt;_mxfile_host_app_diagrams_net_modified_2024_11_20T08_30_00_000Z_agent_Mozilla_5_0_Windows_NT_10_0_Win64_x64_AppleWebKit_537_36_KHTML&amp;gt;&amp;lt;mxPoint x=&quot;500&quot; y=&quot;200&quot; as=&quot;targetPoint&quot;/&amp;gt;&#xa;    &#xa;  &#xa;  &#xa;    &amp;lt;_mxfile_host_app_diagrams_net_modified_2024_11_20T08_30_00_000Z_agent_Mozilla_5_0_Windows_NT_10_0_Win64_x64_AppleWebKit_537_36_KHTML&amp;gt;&amp;lt;/mxGeometry&amp;gt;&#xa;    &#xa;  &#xa;  &#xa;    &amp;lt;_mxfile_host_app_diagrams_net_modified_2024_11_20T08_30_00_000Z_agent_Mozilla_5_0_Windows_NT_10_0_Win64_x64_AppleWebKit_537_36_KHTML&amp;gt;&amp;lt;/mxCell&amp;gt;&#xa;    &#xa;  &#xa;  &#xa;    &amp;lt;_mxfile_host_app_diagrams_net_modified_2024_11_20T08_30_00_000Z_agent_Mozilla_5_0_Windows_NT_10_0_Win64_x64_AppleWebKit_537_36_KHTML&amp;gt;&amp;lt;mxCell id=&quot;18&quot; value=&quot;Invalid&quot; style=&quot;endArrow=classic;html=1;exitX=1;exitY=0.5;exitDx=0;exitDy=0;&quot; edge=&quot;1&quot; parent=&quot;1&quot; source=&quot;6&quot; target=&quot;3&quot;&amp;gt;&#xa;    &#xa;  &#xa;  &#xa;    &amp;lt;_mxfile_host_app_diagrams_net_modified_2024_11_20T08_30_00_000Z_agent_Mozilla_5_0_Windows_NT_10_0_Win64_x64_AppleWebKit_537_36_KHTML&amp;gt;&amp;lt;mxGeometry width=&quot;50&quot; height=&quot;50&quot; relative=&quot;1&quot; as=&quot;geometry&quot;&amp;gt;&#xa;    &#xa;  &#xa;  &#xa;    &amp;lt;_mxfile_host_app_diagrams_net_modified_2024_11_20T08_30_00_000Z_agent_Mozilla_5_0_Windows_NT_10_0_Win64_x64_AppleWebKit_537_36_KHTML&amp;gt;&amp;lt;mxPoint x=&quot;600&quot; y=&quot;110&quot; as=&quot;sourcePoint&quot;/&amp;gt;&#xa;    &#xa;  &#xa;  &#xa;    &amp;lt;_mxfile_host_app_diagrams_net_modified_2024_11_20T08_30_00_000Z_agent_Mozilla_5_0_Windows_NT_10_0_Win64_x64_AppleWebKit_537_36_KHTML&amp;gt;&amp;lt;mxPoint x=&quot;240&quot; y=&quot;110&quot; as=&quot;targetPoint&quot;/&amp;gt;&#xa;    &#xa;  &#xa;  &#xa;    &amp;lt;_mxfile_host_app_diagrams_net_modified_2024_11_20T08_30_00_000Z_agent_Mozilla_5_0_Windows_NT_10_0_Win64_x64_AppleWebKit_537_36_KHTML&amp;gt;&amp;lt;Array as=&quot;points&quot;&amp;gt;&#xa;    &#xa;  &#xa;  &#xa;    &amp;lt;_mxfile_host_app_diagrams_net_modified_2024_11_20T08_30_00_000Z_agent_Mozilla_5_0_Windows_NT_10_0_Win64_x64_AppleWebKit_537_36_KHTML&amp;gt;&amp;lt;mxPoint x=&quot;750&quot; y=&quot;110&quot;/&amp;gt;&#xa;    &#xa;  &#xa;  &#xa;    &amp;lt;_mxfile_host_app_diagrams_net_modified_2024_11_20T08_30_00_000Z_agent_Mozilla_5_0_Windows_NT_10_0_Win64_x64_AppleWebKit_537_36_KHTML&amp;gt;&amp;lt;mxPoint x=&quot;750&quot; y=&quot;50&quot;/&amp;gt;&#xa;    &#xa;  &#xa;  &#xa;    &amp;lt;_mxfile_host_app_diagrams_net_modified_2024_11_20T08_30_00_000Z_agent_Mozilla_5_0_Windows_NT_10_0_Win64_x64_AppleWebKit_537_36_KHTML&amp;gt;&amp;lt;mxPoint x=&quot;150&quot; y=&quot;50&quot;/&amp;gt;&#xa;    &#xa;  &#xa;  &#xa;    &amp;lt;_mxfile_host_app_diagrams_net_modified_2024_11_20T08_30_00_000Z_agent_Mozilla_5_0_Windows_NT_10_0_Win64_x64_AppleWebKit_537_36_KHTML&amp;gt;&amp;lt;/Array&amp;gt;&#xa;    &#xa;  &#xa;  &#xa;    &amp;lt;_mxfile_host_app_diagrams_net_modified_2024_11_20T08_30_00_000Z_agent_Mozilla_5_0_Windows_NT_10_0_Win64_x64_AppleWebKit_537_36_KHTML&amp;gt;&amp;lt;/mxGeometry&amp;gt;&#xa;    &#xa;  &#xa;  &#xa;    &amp;lt;_mxfile_host_app_diagrams_net_modified_2024_11_20T08_30_00_000Z_agent_Mozilla_5_0_Windows_NT_10_0_Win64_x64_AppleWebKit_537_36_KHTML&amp;gt;&amp;lt;/mxCell&amp;gt;&#xa;    &#xa;  &#xa;  &#xa;    &amp;lt;_mxfile_host_app_diagrams_net_modified_2024_11_20T08_30_00_000Z_agent_Mozilla_5_0_Windows_NT_10_0_Win64_x64_AppleWebKit_537_36_KHTML&amp;gt;&amp;lt;mxCell id=&quot;19&quot; value=&quot;Login Error&quot; style=&quot;text;html=1;align=center;verticalAlign=middle;resizable=0;points=[];autosize=1;strokeColor=none;fillColor=none;&quot; vertex=&quot;1&quot; parent=&quot;1&quot;&amp;gt;&#xa;    &#xa;  &#xa;  &#xa;    &amp;lt;_mxfile_host_app_diagrams_net_modified_2024_11_20T08_30_00_000Z_agent_Mozilla_5_0_Windows_NT_10_0_Win64_x64_AppleWebKit_537_36_KHTML&amp;gt;&amp;lt;mxGeometry x=&quot;680&quot; y=&quot;60&quot; width=&quot;70&quot; height=&quot;20&quot; as=&quot;geometry&quot;/&amp;gt;&#xa;    &#xa;  &#xa;  &#xa;    &amp;lt;_mxfile_host_app_diagrams_net_modified_2024_11_20T08_30_00_000Z_agent_Mozilla_5_0_Windows_NT_10_0_Win64_x64_AppleWebKit_537_36_KHTML&amp;gt;&amp;lt;/mxCell&amp;gt;&#xa;    &#xa;  &#xa;  &#xa;    &amp;lt;_mxfile_host_app_diagrams_net_modified_2024_11_20T08_30_00_000Z_agent_Mozilla_5_0_Windows_NT_10_0_Win64_x64_AppleWebKit_537_36_KHTML&amp;gt;&amp;lt;mxCell id=&quot;20&quot; value=&quot;&quot; style=&quot;endArrow=classic;html=1;entryX=0;entryY=0.5;entryDx=0;entryDy=0;&quot; edge=&quot;1&quot; parent=&quot;1&quot; source=&quot;7&quot; target=&quot;12&quot;&amp;gt;&#xa;    &#xa;  &#xa;  &#xa;    &amp;lt;_mxfile_host_app_diagrams_net_modified_2024_11_20T08_30_00_000Z_agent_Mozilla_5_0_Windows_NT_10_0_Win64_x64_AppleWebKit_537_36_KHTML&amp;gt;&amp;lt;mxGeometry width=&quot;50&quot; height=&quot;50&quot; relative=&quot;1&quot; as=&quot;geometry&quot;&amp;gt;&#xa;    &#xa;  &#xa;  &#xa;    &amp;lt;_mxfile_host_app_diagrams_net_modified_2024_11_20T08_30_00_000Z_agent_Mozilla_5_0_Windows_NT_10_0_Win64_x64_AppleWebKit_537_36_KHTML&amp;gt;&amp;lt;mxPoint x=&quot;720&quot; y=&quot;170&quot; as=&quot;sourcePoint&quot;/&amp;gt;&#xa;    &#xa;  &#xa;  &#xa;    &amp;lt;_mxfile_host_app_diagrams_net_modified_2024_11_20T08_30_00_000Z_agent_Mozilla_5_0_Windows_NT_10_0_Win64_x64_AppleWebKit_537_36_KHTML&amp;gt;&amp;lt;mxPoint x=&quot;780&quot; y=&quot;170&quot; as=&quot;targetPoint&quot;/&amp;gt;&#xa;    &#xa;  &#xa;  &#xa;    &amp;lt;_mxfile_host_app_diagrams_net_modified_2024_11_20T08_30_00_000Z_agent_Mozilla_5_0_Windows_NT_10_0_Win64_x64_AppleWebKit_537_36_KHTML&amp;gt;&amp;lt;/mxGeometry&amp;gt;&#xa;    &#xa;  &#xa;  &#xa;    &amp;lt;_mxfile_host_app_diagrams_net_modified_2024_11_20T08_30_00_000Z_agent_Mozilla_5_0_Windows_NT_10_0_Win64_x64_AppleWebKit_537_36_KHTML&amp;gt;&amp;lt;/mxCell&amp;gt;&#xa;    &#xa;  &#xa;  &#xa;    &amp;lt;_mxfile_host_app_diagrams_net_modified_2024_11_20T08_30_00_000Z_agent_Mozilla_5_0_Windows_NT_10_0_Win64_x64_AppleWebKit_537_36_KHTML&amp;gt;&amp;lt;mxCell id=&quot;21&quot; value=&quot;Store Token Hash&quot; style=&quot;text;html=1;align=center;verticalAlign=middle;resizable=0;points=[];autosize=1;strokeColor=none;fillColor=none;&quot; vertex=&quot;1&quot; parent=&quot;1&quot;&amp;gt;&#xa;    &#xa;  &#xa;  &#xa;    &amp;lt;_mxfile_host_app_diagrams_net_modified_2024_11_20T08_30_00_000Z_agent_Mozilla_5_0_Windows_NT_10_0_Win64_x64_AppleWebKit_537_36_KHTML&amp;gt;&amp;lt;mxGeometry x=&quot;680&quot; y=&quot;160&quot; width=&quot;100&quot; height=&quot;20&quot; as=&quot;geometry&quot;/&amp;gt;&#xa;    &#xa;  &#xa;  &#xa;    &amp;lt;_mxfile_host_app_diagrams_net_modified_2024_11_20T08_30_00_000Z_agent_Mozilla_5_0_Windows_NT_10_0_Win64_x64_AppleWebKit_537_36_KHTML&amp;gt;&amp;lt;/mxCell&amp;gt;&#xa;    &#xa;  &#xa;  &#xa;    &amp;lt;_mxfile_host_app_diagrams_net_modified_2024_11_20T08_30_00_000Z_agent_Mozilla_5_0_Windows_NT_10_0_Win64_x64_AppleWebKit_537_36_KHTML&amp;gt;&amp;lt;mxCell id=&quot;22&quot; value=&quot;&amp;amp;lt;font style=&amp;amp;quot;font-size: 14px&amp;amp;quot;&amp;amp;gt;&amp;amp;lt;/font&amp;amp;gt;&quot; style=&quot;endArrow=classic;html=1;exitX=0;exitY=0.5;exitDx=0;exitDy=0;&quot; edge=&quot;1&quot; parent=&quot;1&quot; source=&quot;8&quot; target=&quot;2&quot;&amp;gt;&#xa;    &#xa;  &#xa;  &#xa;    &amp;lt;_mxfile_host_app_diagrams_net_modified_2024_11_20T08_30_00_000Z_agent_Mozilla_5_0_Windows_NT_10_0_Win64_x64_AppleWebKit_537_36_KHTML&amp;gt;&amp;lt;mxGeometry width=&quot;50&quot; height=&quot;50&quot; relative=&quot;1&quot; as=&quot;geometry&quot;&amp;gt;&#xa;    &#xa;  &#xa;  &#xa;    &amp;lt;_mxfile_host_app_diagrams_net_modified_2024_11_20T08_30_00_000Z_agent_Mozilla_5_0_Windows_NT_10_0_Win64_x64_AppleWebKit_537_36_KHTML&amp;gt;&amp;lt;mxPoint x=&quot;440&quot; y=&quot;270&quot; as=&quot;sourcePoint&quot;/&amp;gt;&#xa;    &#xa;  &#xa;  &#xa;    &amp;lt;_mxfile_host_app_diagrams_net_modified_2024_11_20T08_30_00_000Z_agent_Mozilla_5_0_Windows_NT_10_0_Win64_x64_AppleWebKit_537_36_KHTML&amp;gt;&amp;lt;mxPoint x=&quot;240&quot; y=&quot;270&quot; as=&quot;targetPoint&quot;/&amp;gt;&#xa;    &#xa;  &#xa;  &#xa;    &amp;lt;_mxfile_host_app_diagrams_net_modified_2024_11_20T08_30_00_000Z_agent_Mozilla_5_0_Windows_NT_10_0_Win64_x64_AppleWebKit_537_36_KHTML&amp;gt;&amp;lt;/mxGeometry&amp;gt;&#xa;    &#xa;  &#xa;  &#xa;    &amp;lt;_mxfile_host_app_diagrams_net_modified_2024_11_20T08_30_00_000Z_agent_Mozilla_5_0_Windows_NT_10_0_Win64_x64_AppleWebKit_537_36_KHTML&amp;gt;&amp;lt;/mxCell&amp;gt;&#xa;    &#xa;  &#xa;  &#xa;    &amp;lt;_mxfile_host_app_diagrams_net_modified_2024_11_20T08_30_00_000Z_agent_Mozilla_5_0_Windows_NT_10_0_Win64_x64_AppleWebKit_537_36_KHTML&amp;gt;&amp;lt;mxCell id=&quot;23&quot; value=&quot;Akses API dengan Access Token&quot; style=&quot;text;html=1;align=center;verticalAlign=middle;resizable=0;points=[];autosize=1;strokeColor=none;fillColor=none;&quot; vertex=&quot;1&quot; parent=&quot;1&quot;&amp;gt;&#xa;    &#xa;  &#xa;  &#xa;    &amp;lt;_mxfile_host_app_diagrams_net_modified_2024_11_20T08_30_00_000Z_agent_Mozilla_5_0_Windows_NT_10_0_Win64_x64_AppleWebKit_537_36_KHTML&amp;gt;&amp;lt;mxGeometry x=&quot;340&quot; y=&quot;320&quot; width=&quot;170&quot; height=&quot;20&quot; as=&quot;geometry&quot;/&amp;gt;&#xa;    &#xa;  &#xa;  &#xa;    &amp;lt;_mxfile_host_app_diagrams_net_modified_2024_11_20T08_30_00_000Z_agent_Mozilla_5_0_Windows_NT_10_0_Win64_x64_AppleWebKit_537_36_KHTML&amp;gt;&amp;lt;/mxCell&amp;gt;&#xa;    &#xa;  &#xa;  &#xa;    &amp;lt;_mxfile_host_app_diagrams_net_modified_2024_11_20T08_30_00_000Z_agent_Mozilla_5_0_Windows_NT_10_0_Win64_x64_AppleWebKit_537_36_KHTML&amp;gt;&amp;lt;mxCell id=&quot;24&quot; value=&quot;Token Valid?&quot; style=&quot;text;html=1;align=center;verticalAlign=middle;resizable=0;points=[];autosize=1;strokeColor=none;fillColor=none;&quot; vertex=&quot;1&quot; parent=&quot;1&quot;&amp;gt;&#xa;    &#xa;  &#xa;  &#xa;    &amp;lt;_mxfile_host_app_diagrams_net_modified_2024_11_20T08_30_00_000Z_agent_Mozilla_5_0_Windows_NT_10_0_Win64_x64_AppleWebKit_537_36_KHTML&amp;gt;&amp;lt;mxGeometry x=&quot;440&quot; y=&quot;380&quot; width=&quot;80&quot; height=&quot;20&quot; as=&quot;geometry&quot;/&amp;gt;&#xa;    &#xa;  &#xa;  &#xa;    &amp;lt;_mxfile_host_app_diagrams_net_modified_2024_11_20T08_30_00_000Z_agent_Mozilla_5_0_Windows_NT_10_0_Win64_x64_AppleWebKit_537_36_KHTML&amp;gt;&amp;lt;/mxCell&amp;gt;&#xa;    &#xa;  &#xa;  &#xa;    &amp;lt;_mxfile_host_app_diagrams_net_modified_2024_11_20T08_30_00_000Z_agent_Mozilla_5_0_Windows_NT_10_0_Win64_x64_AppleWebKit_537_36_KHTML&amp;gt;&amp;lt;mxCell id=&quot;25&quot; value=&quot;&amp;amp;lt;font style=&amp;amp;quot;font-size: 14px&amp;amp;quot;&amp;amp;gt;&amp;amp;lt;/font&amp;amp;gt;&quot; style=&quot;endArrow=classic;html=1;exitX=0;exitY=0.5;exitDx=0;exitDy=0;entryX=0;entryY=0.5;entryDx=0;entryDy=0;&quot; edge=&quot;1&quot; parent=&quot;1&quot; source=&quot;9&quot; target=&quot;2&quot;&amp;gt;&#xa;    &#xa;  &#xa;  &#xa;    &amp;lt;_mxfile_host_app_diagrams_net_modified_2024_11_20T08_30_00_000Z_agent_Mozilla_5_0_Windows_NT_10_0_Win64_x64_AppleWebKit_537_36_KHTML&amp;gt;&amp;lt;mxGeometry width=&quot;50&quot; height=&quot;50&quot; relative=&quot;1&quot; as=&quot;geometry&quot;&amp;gt;&#xa;    &#xa;  &#xa;  &#xa;    &amp;lt;_mxfile_host_app_diagrams_net_modified_2024_11_20T08_30_00_000Z_agent_Mozilla_5_0_Windows_NT_10_0_Win64_x64_AppleWebKit_537_36_KHTML&amp;gt;&amp;lt;mxPoint x=&quot;440&quot; y=&quot;370&quot; as=&quot;sourcePoint&quot;/&amp;gt;&#xa;    &#xa;  &#xa;  &#xa;    &amp;lt;_mxfile_host_app_diagrams_net_modified_2024_11_20T08_30_00_000Z_agent_Mozilla_5_0_Windows_NT_10_0_Win64_x64_AppleWebKit_537_36_KHTML&amp;gt;&amp;lt;mxPoint x=&quot;240&quot; y=&quot;370&quot; as=&quot;targetPoint&quot;/&amp;gt;&#xa;    &#xa;  &#xa;  &#xa;    &amp;lt;_mxfile_host_app_diagrams_net_modified_2024_11_20T08_30_00_000Z_agent_Mozilla_5_0_Windows_NT_10_0_Win64_x64_AppleWebKit_537_36_KHTML&amp;gt;&amp;lt;Array as=&quot;points&quot;&amp;gt;&#xa;    &#xa;  &#xa;  &#xa;    &amp;lt;_mxfile_host_app_diagrams_net_modified_2024_11_20T08_30_00_000Z_agent_Mozilla_5_0_Windows_NT_10_0_Win64_x64_AppleWebKit_537_36_KHTML&amp;gt;&amp;lt;mxPoint x=&quot;340&quot; y=&quot;370&quot;/&amp;gt;&#xa;    &#xa;  &#xa;  &#xa;    &amp;lt;_mxfile_host_app_diagrams_net_modified_2024_11_20T08_30_00_000Z_agent_Mozilla_5_0_Windows_NT_10_0_Win64_x64_AppleWebKit_537_36_KHTML&amp;gt;&amp;lt;mxPoint x=&quot;340&quot; y=&quot;400&quot;/&amp;gt;&#xa;    &#xa;  &#xa;  &#xa;    &amp;lt;_mxfile_host_app_diagrams_net_modified_2024_11_20T08_30_00_000Z_agent_Mozilla_5_0_Windows_NT_10_0_Win64_x64_AppleWebKit_537_36_KHTML&amp;gt;&amp;lt;mxPoint x=&quot;240&quot; y=&quot;400&quot;/&amp;gt;&#xa;    &#xa;  &#xa;  &#xa;    &amp;lt;_mxfile_host_app_diagrams_net_modified_2024_11_20T08_30_00_000Z_agent_Mozilla_5_0_Windows_NT_10_0_Win64_x64_AppleWebKit_537_36_KHTML&amp;gt;&amp;lt;/Array&amp;gt;&#xa;    &#xa;  &#xa;  &#xa;    &amp;lt;_mxfile_host_app_diagrams_net_modified_2024_11_20T08_30_00_000Z_agent_Mozilla_5_0_Windows_NT_10_0_Win64_x64_AppleWebKit_537_36_KHTML&amp;gt;&amp;lt;/mxGeometry&amp;gt;&#xa;    &#xa;  &#xa;  &#xa;    &amp;lt;_mxfile_host_app_diagrams_net_modified_2024_11_20T08_30_00_000Z_agent_Mozilla_5_0_Windows_NT_10_0_Win64_x64_AppleWebKit_537_36_KHTML&amp;gt;&amp;lt;/mxCell&amp;gt;&#xa;    &#xa;  &#xa;  &#xa;    &amp;lt;_mxfile_host_app_diagrams_net_modified_2024_11_20T08_30_00_000Z_agent_Mozilla_5_0_Windows_NT_10_0_Win64_x64_AppleWebKit_537_36_KHTML&amp;gt;&amp;lt;mxCell id=&quot;26&quot; value=&quot;&amp;amp;lt;font style=&amp;amp;quot;font-size: 14px&amp;amp;quot;&amp;amp;gt;&amp;amp;lt;/font&amp;amp;gt;&quot; style=&quot;endArrow=classic;html=1;exitX=1;exitY=0.5;exitDx=0;exitDy=0;entryX=0;entryY=0.5;entryDx=0;entryDy=0;&quot; edge=&quot;1&quot; parent=&quot;1&quot; source=&quot;9&quot; target=&quot;10&quot;&amp;gt;&#xa;    &#xa;  &#xa;  &#xa;    &amp;lt;_mxfile_host_app_diagrams_net_modified_2024_11_20T08_30_00_000Z_agent_Mozilla_5_0_Windows_NT_10_0_Win64_x64_AppleWebKit_537_36_KHTML&amp;gt;&amp;lt;mxGeometry width=&quot;50&quot; height=&quot;50&quot; relative=&quot;1&quot; as=&quot;geometry&quot;&amp;gt;&#xa;    &#xa;  &#xa;  &#xa;    &amp;lt;_mxfile_host_app_diagrams_net_modified_2024_11_20T08_30_00_000Z_agent_Mozilla_5_0_Windows_NT_10_0_Win64_x64_AppleWebKit_537_36_KHTML&amp;gt;&amp;lt;mxPoint x=&quot;600&quot; y=&quot;370&quot; as=&quot;sourcePoint&quot;/&amp;gt;&#xa;    &#xa;  &#xa;  &#xa;    &amp;lt;_mxfile_host_app_diagrams_net_modified_2024_11_20T08_30_00_000Z_agent_Mozilla_5_0_Windows_NT_10_0_Win64_x64_AppleWebKit_537_36_KHTML&amp;gt;&amp;lt;mxPoint x=&quot;440&quot; y=&quot;470&quot; as=&quot;targetPoint&quot;/&amp;gt;&#xa;    &#xa;  &#xa;  &#xa;    &amp;lt;_mxfile_host_app_diagrams_net_modified_2024_11_20T08_30_00_000Z_agent_Mozilla_5_0_Windows_NT_10_0_Win64_x64_AppleWebKit_537_36_KHTML&amp;gt;&amp;lt;Array as=&quot;points&quot;&amp;gt;&#xa;    &#xa;  &#xa;  &#xa;    &amp;lt;_mxfile_host_app_diagrams_net_modified_2024_11_20T08_30_00_000Z_agent_Mozilla_5_0_Windows_NT_10_0_Win64_x64_AppleWebKit_537_36_KHTML&amp;gt;&amp;lt;mxPoint x=&quot;750&quot; y=&quot;370&quot;/&amp;gt;&#xa;    &#xa;  &#xa;  &#xa;    &amp;lt;_mxfile_host_app_diagrams_net_modified_2024_11_20T08_30_00_000Z_agent_Mozilla_5_0_Windows_NT_10_0_Win64_x64_AppleWebKit_537_36_KHTML&amp;gt;&amp;lt;mxPoint x=&quot;750&quot; y=&quot;470&quot;/&amp;gt;&#xa;    &#xa;  &#xa;  &#xa;    &amp;lt;_mxfile_host_app_diagrams_net_modified_2024_11_20T08_30_00_000Z_agent_Mozilla_5_0_Windows_NT_10_0_Win64_x64_AppleWebKit_537_36_KHTML&amp;gt;&amp;lt;/Array&amp;gt;&#xa;    &#xa;  &#xa;  &#xa;    &amp;lt;_mxfile_host_app_diagrams_net_modified_2024_11_20T08_30_00_000Z_agent_Mozilla_5_0_Windows_NT_10_0_Win64_x64_AppleWebKit_537_36_KHTML&amp;gt;&amp;lt;/mxGeometry&amp;gt;&#xa;    &#xa;  &#xa;  &#xa;    &amp;lt;_mxfile_host_app_diagrams_net_modified_2024_11_20T08_30_00_000Z_agent_Mozilla_5_0_Windows_NT_10_0_Win64_x64_AppleWebKit_537_36_KHTML&amp;gt;&amp;lt;/mxCell&amp;gt;&#xa;    &#xa;  &#xa;  &#xa;    &amp;lt;_mxfile_host_app_diagrams_net_modified_2024_11_20T08_30_00_000Z_agent_Mozilla_5_0_Windows_NT_10_0_Win64_x64_AppleWebKit_537_36_KHTML&amp;gt;&amp;lt;mxCell id=&quot;27&quot; value=&quot;On Token Expired&quot; style=&quot;text;html=1;align=center;verticalAlign=middle;resizable=0;points=[];autosize=1;strokeColor=none;fillColor=none;&quot; vertex=&quot;1&quot; parent=&quot;1&quot;&amp;gt;&#xa;    &#xa;  &#xa;  &#xa;    &amp;lt;_mxfile_host_app_diagrams_net_modified_2024_11_20T08_30_00_000Z_agent_Mozilla_5_0_Windows_NT_10_0_Win64_x64_AppleWebKit_537_36_KHTML&amp;gt;&amp;lt;mxGeometry x=&quot;720&quot; y=&quot;370&quot; width=&quot;100&quot; height=&quot;20&quot; as=&quot;geometry&quot;/&amp;gt;&#xa;    &#xa;  &#xa;  &#xa;    &amp;lt;_mxfile_host_app_diagrams_net_modified_2024_11_20T08_30_00_000Z_agent_Mozilla_5_0_Windows_NT_10_0_Win64_x64_AppleWebKit_537_36_KHTML&amp;gt;&amp;lt;/mxCell&amp;gt;&#xa;    &#xa;  &#xa;  &#xa;    &amp;lt;_mxfile_host_app_diagrams_net_modified_2024_11_20T08_30_00_000Z_agent_Mozilla_5_0_Windows_NT_10_0_Win64_x64_AppleWebKit_537_36_KHTML&amp;gt;&amp;lt;mxCell id=&quot;28&quot; value=&quot;Check Hash &amp;amp;amp; Expiry&quot; style=&quot;text;html=1;align=center;verticalAlign=middle;resizable=0;points=[];autosize=1;strokeColor=none;fillColor=none;&quot; vertex=&quot;1&quot; parent=&quot;1&quot;&amp;gt;&#xa;    &#xa;  &#xa;  &#xa;    &amp;lt;_mxfile_host_app_diagrams_net_modified_2024_11_20T08_30_00_000Z_agent_Mozilla_5_0_Windows_NT_10_0_Win64_x64_AppleWebKit_537_36_KHTML&amp;gt;&amp;lt;mxGeometry x=&quot;680&quot; y=&quot;450&quot; width=&quot;120&quot; height=&quot;20&quot; as=&quot;geometry&quot;/&amp;gt;&#xa;    &#xa;  &#xa;  &#xa;    &amp;lt;_mxfile_host_app_diagrams_net_modified_2024_11_20T08_30_00_000Z_agent_Mozilla_5_0_Windows_NT_10_0_Win64_x64_AppleWebKit_537_36_KHTML&amp;gt;&amp;lt;/mxCell&amp;gt;&#xa;    &#xa;  &#xa;  &#xa;    &amp;lt;_mxfile_host_app_diagrams_net_modified_2024_11_20T08_30_00_000Z_agent_Mozilla_5_0_Windows_NT_10_0_Win64_x64_AppleWebKit_537_36_KHTML&amp;gt;&amp;lt;mxCell id=&quot;29&quot; value=&quot;&quot; style=&quot;endArrow=classic;html=1;entryX=0;entryY=0.5;entryDx=0;entryDy=0;&quot; edge=&quot;1&quot; parent=&quot;1&quot; source=&quot;10&quot; target=&quot;13&quot;&amp;gt;&#xa;    &#xa;  &#xa;  &#xa;    &amp;lt;_mxfile_host_app_diagrams_net_modified_2024_11_20T08_30_00_000Z_agent_Mozilla_5_0_Windows_NT_10_0_Win64_x64_AppleWebKit_537_36_KHTML&amp;gt;&amp;lt;mxGeometry width=&quot;50&quot; height=&quot;50&quot; relative=&quot;1&quot; as=&quot;geometry&quot;&amp;gt;&#xa;    &#xa;  &#xa;  &#xa;    &amp;lt;_mxfile_host_app_diagrams_net_modified_2024_11_20T08_30_00_000Z_agent_Mozilla_5_0_Windows_NT_10_0_Win64_x64_AppleWebKit_537_36_KHTML&amp;gt;&amp;lt;mxPoint x=&quot;640&quot; y=&quot;470&quot; as=&quot;sourcePoint&quot;/&amp;gt;&#xa;    &#xa;  &#xa;  &#xa;    &amp;lt;_mxfile_host_app_diagrams_net_modified_2024_11_20T08_30_00_000Z_agent_Mozilla_5_0_Windows_NT_10_0_Win64_x64_AppleWebKit_537_36_KHTML&amp;gt;&amp;lt;mxPoint x=&quot;780&quot; y=&quot;470&quot; as=&quot;targetPoint&quot;/&amp;gt;&#xa;    &#xa;  &#xa;  &#xa;    &amp;lt;_mxfile_host_app_diagrams_net_modified_2024_11_20T08_30_00_000Z_agent_Mozilla_5_0_Windows_NT_10_0_Win64_x64_AppleWebKit_537_36_KHTML&amp;gt;&amp;lt;/mxGeometry&amp;gt;&#xa;    &#xa;  &#xa;  &#xa;    &amp;lt;_mxfile_host_app_diagrams_net_modified_2024_11_20T08_30_00_000Z_agent_Mozilla_5_0_Windows_NT_10_0_Win64_x64_AppleWebKit_537_36_KHTML&amp;gt;&amp;lt;/mxCell&amp;gt;&#xa;    &#xa;  &#xa;  &#xa;    &amp;lt;_mxfile_host_app_diagrams_net_modified_2024_11_20T08_30_00_000Z_agent_Mozilla_5_0_Windows_NT_10_0_Win64_x64_AppleWebKit_537_36_KHTML&amp;gt;&amp;lt;mxCell id=&quot;30&quot; value=&quot;Valid?&quot; style=&quot;text;html=1;align=center;verticalAlign=middle;resizable=0;points=[];autosize=1;strokeColor=none;fillColor=none;&quot; vertex=&quot;1&quot; parent=&quot;1&quot;&amp;gt;&#xa;    &#xa;  &#xa;  &#xa;    &amp;lt;_mxfile_host_app_diagrams_net_modified_2024_11_20T08_30_00_000Z_agent_Mozilla_5_0_Windows_NT_10_0_Win64_x64_AppleWebKit_537_36_KHTML&amp;gt;&amp;lt;mxGeometry x=&quot;840&quot; y=&quot;420&quot; width=&quot;50&quot; height=&quot;20&quot; as=&quot;geometry&quot;/&amp;gt;&#xa;    &#xa;  &#xa;  &#xa;    &amp;lt;_mxfile_host_app_diagrams_net_modified_2024_11_20T08_30_00_000Z_agent_Mozilla_5_0_Windows_NT_10_0_Win64_x64_AppleWebKit_537_36_KHTML&amp;gt;&amp;lt;/mxCell&amp;gt;&#xa;    &#xa;  &#xa;  &#xa;    &amp;lt;_mxfile_host_app_diagrams_net_modified_2024_11_20T08_30_00_000Z_agent_Mozilla_5_0_Windows_NT_10_0_Win64_x64_AppleWebKit_537_36_KHTML&amp;gt;&amp;lt;mxCell id=&quot;31&quot; value=&quot;Yes&quot; style=&quot;endArrow=classic;html=1;&quot; edge=&quot;1&quot; parent=&quot;1&quot; source=&quot;13&quot; target=&quot;7&quot;&amp;gt;&#xa;    &#xa;  &#xa;  &#xa;    &amp;lt;_mxfile_host_app_diagrams_net_modified_2024_11_20T08_30_00_000Z_agent_Mozilla_5_0_Windows_NT_10_0_Win64_x64_AppleWebKit_537_36_KHTML&amp;gt;&amp;lt;mxGeometry width=&quot;50&quot; height=&quot;50&quot; relative=&quot;1&quot; as=&quot;geometry&quot;&amp;gt;&#xa;    &#xa;  &#xa;  &#xa;    &amp;lt;_mxfile_host_app_diagrams_net_modified_2024_11_20T08_30_00_000Z_agent_Mozilla_5_0_Windows_NT_10_0_Win64_x64_AppleWebKit_537_36_KHTML&amp;gt;&amp;lt;mxPoint x=&quot;900&quot; y=&quot;450&quot; as=&quot;sourcePoint&quot;/&amp;gt;&#xa;    &#xa;  &#xa;  &#xa;    &amp;lt;_mxfile_host_app_diagrams_net_modified_2024_11_20T08_30_00_000Z_agent_Mozilla_5_0_Windows_NT_10_0_Win64_x64_AppleWebKit_537_36_KHTML&amp;gt;&amp;lt;mxPoint x=&quot;540&quot; y=&quot;170&quot; as=&quot;targetPoint&quot;/&amp;gt;&#xa;    &#xa;  &#xa;  &#xa;    &amp;lt;_mxfile_host_app_diagrams_net_modified_2024_11_20T08_30_00_000Z_agent_Mozilla_5_0_Windows_NT_10_0_Win64_x64_AppleWebKit_537_36_KHTML&amp;gt;&amp;lt;Array as=&quot;points&quot;&amp;gt;&#xa;    &#xa;  &#xa;  &#xa;    &amp;lt;_mxfile_host_app_diagrams_net_modified_2024_11_20T08_30_00_000Z_agent_Mozilla_5_0_Windows_NT_10_0_Win64_x64_AppleWebKit_537_36_KHTML&amp;gt;&amp;lt;mxPoint x=&quot;1020&quot; y=&quot;450&quot;/&amp;gt;&#xa;    &#xa;  &#xa;  &#xa;    &amp;lt;_mxfile_host_app_diagrams_net_modified_2024_11_20T08_30_00_000Z_agent_Mozilla_5_0_Windows_NT_10_0_Win64_x64_AppleWebKit_537_36_KHTML&amp;gt;&amp;lt;mxPoint x=&quot;1020&quot; y=&quot;170&quot;/&amp;gt;&#xa;    &#xa;  &#xa;  &#xa;    &amp;lt;_mxfile_host_app_diagrams_net_modified_2024_11_20T08_30_00_000Z_agent_Mozilla_5_0_Windows_NT_10_0_Win64_x64_AppleWebKit_537_36_KHTML&amp;gt;&amp;lt;mxPoint x=&quot;720&quot; y=&quot;170&quot;/&amp;gt;&#xa;    &#xa;  &#xa;  &#xa;    &amp;lt;_mxfile_host_app_diagrams_net_modified_2024_11_20T08_30_00_000Z_agent_Mozilla_5_0_Windows_NT_10_0_Win64_x64_AppleWebKit_537_36_KHTML&amp;gt;&amp;lt;/Array&amp;gt;&#xa;    &#xa;  &#xa;  &#xa;    &amp;lt;_mxfile_host_app_diagrams_net_modified_2024_11_20T08_30_00_000Z_agent_Mozilla_5_0_Windows_NT_10_0_Win64_x64_AppleWebKit_537_36_KHTML&amp;gt;&amp;lt;/mxGeometry&amp;gt;&#xa;    &#xa;  &#xa;  &#xa;    &amp;lt;_mxfile_host_app_diagrams_net_modified_2024_11_20T08_30_00_000Z_agent_Mozilla_5_0_Windows_NT_10_0_Win64_x64_AppleWebKit_537_36_KHTML&amp;gt;&amp;lt;/mxCell&amp;gt;&#xa;    &#xa;  &#xa;  &#xa;    &amp;lt;_mxfile_host_app_diagrams_net_modified_2024_11_20T08_30_00_000Z_agent_Mozilla_5_0_Windows_NT_10_0_Win64_x64_AppleWebKit_537_36_KHTML&amp;gt;&amp;lt;mxCell id=&quot;32&quot; value=&quot;Invalid&quot; style=&quot;endArrow=classic;html=1;exitX=0.5;exitY=1;exitDx=0;exitDy=0;&quot; edge=&quot;1&quot; parent=&quot;1&quot; source=&quot;13&quot; target=&quot;14&quot;&amp;gt;&#xa;    &#xa;  &#xa;  &#xa;    &amp;lt;_mxfile_host_app_diagrams_net_modified_2024_11_20T08_30_00_000Z_agent_Mozilla_5_0_Windows_NT_10_0_Win64_x64_AppleWebKit_537_36_KHTML&amp;gt;&amp;lt;mxGeometry width=&quot;50&quot; height=&quot;50&quot; relative=&quot;1&quot; as=&quot;geometry&quot;&amp;gt;&#xa;    &#xa;  &#xa;  &#xa;    &amp;lt;_mxfile_host_app_diagrams_net_modified_2024_11_20T08_30_00_000Z_agent_Mozilla_5_0_Windows_NT_10_0_Win64_x64_AppleWebKit_537_36_KHTML&amp;gt;&amp;lt;mxPoint x=&quot;900&quot; y=&quot;480&quot; as=&quot;sourcePoint&quot;/&amp;gt;&#xa;    &#xa;  &#xa;  &#xa;    &amp;lt;_mxfile_host_app_diagrams_net_modified_2024_11_20T08_30_00_000Z_agent_Mozilla_5_0_Windows_NT_10_0_Win64_x64_AppleWebKit_537_36_KHTML&amp;gt;&amp;lt;mxPoint x=&quot;900&quot; y=&quot;520&quot; as=&quot;targetPoint&quot;/&amp;gt;&#xa;    &#xa;  &#xa;  &#xa;    &amp;lt;_mxfile_host_app_diagrams_net_modified_2024_11_20T08_30_00_000Z_agent_Mozilla_5_0_Windows_NT_10_0_Win64_x64_AppleWebKit_537_36_KHTML&amp;gt;&amp;lt;/mxGeometry&amp;gt;&#xa;    &#xa;  &#xa;  &#xa;    &amp;lt;_mxfile_host_app_diagrams_net_modified_2024_11_20T08_30_00_000Z_agent_Mozilla_5_0_Windows_NT_10_0_Win64_x64_AppleWebKit_537_36_KHTML&amp;gt;&amp;lt;/mxCell&amp;gt;&#xa;    &#xa;  &#xa;  &#xa;    &amp;lt;_mxfile_host_app_diagrams_net_modified_2024_11_20T08_30_00_000Z_agent_Mozilla_5_0_Windows_NT_10_0_Win64_x64_AppleWebKit_537_36_KHTML&amp;gt;&amp;lt;mxCell id=&quot;33&quot; value=&quot;Logout&quot; style=&quot;endArrow=classic;html=1;entryX=0;entryY=0.5;entryDx=0;entryDy=0;&quot; edge=&quot;1&quot; parent=&quot;1&quot; source=&quot;4&quot; target=&quot;14&quot;&amp;gt;&#xa;    &#xa;  &#xa;  &#xa;    &amp;lt;_mxfile_host_app_diagrams_net_modified_2024_11_20T08_30_00_000Z_agent_Mozilla_5_0_Windows_NT_10_0_Win64_x64_AppleWebKit_537_36_KHTML&amp;gt;&amp;lt;mxGeometry width=&quot;50&quot; height=&quot;50&quot; relative=&quot;1&quot; as=&quot;geometry&quot;&amp;gt;&#xa;    &#xa;  &#xa;  &#xa;    &amp;lt;_mxfile_host_app_diagrams_net_modified_2024_11_20T08_30_00_000Z_agent_Mozilla_5_0_Windows_NT_10_0_Win64_x64_AppleWebKit_537_36_KHTML&amp;gt;&amp;lt;mxPoint x=&quot;240&quot; y=&quot;530&quot; as=&quot;sourcePoint&quot;/&amp;gt;&#xa;    &#xa;  &#xa;  &#xa;    &amp;lt;_mxfile_host_app_diagrams_net_modified_2024_11_20T08_30_00_000Z_agent_Mozilla_5_0_Windows_NT_10_0_Win64_x64_AppleWebKit_537_36_KHTML&amp;gt;&amp;lt;mxPoint x=&quot;780&quot; y=&quot;550&quot; as=&quot;targetPoint&quot;/&amp;gt;&#xa;    &#xa;  &#xa;  &#xa;    &amp;lt;_mxfile_host_app_diagrams_net_modified_2024_11_20T08_30_00_000Z_agent_Mozilla_5_0_Windows_NT_10_0_Win64_x64_AppleWebKit_537_36_KHTML&amp;gt;&amp;lt;/mxGeometry&amp;gt;&#xa;    &#xa;  &#xa;  &#xa;    &amp;lt;_mxfile_host_app_diagrams_net_modified_2024_11_20T08_30_00_000Z_agent_Mozilla_5_0_Windows_NT_10_0_Win64_x64_AppleWebKit_537_36_KHTML&amp;gt;&amp;lt;/mxCell&amp;gt;&#xa;    &#xa;  &#xa;  &#xa;    &amp;lt;_mxfile_host_app_diagrams_net_modified_2024_11_20T08_30_00_000Z_agent_Mozilla_5_0_Windows_NT_10_0_Win64_x64_AppleWebKit_537_36_KHTML&amp;gt;&amp;lt;/root&amp;gt;&#xa;    &#xa;  &#xa;  &#xa;    &amp;lt;_mxfile_host_app_diagrams_net_modified_2024_11_20T08_30_00_000Z_agent_Mozilla_5_0_Windows_NT_10_0_Win64_x64_AppleWebKit_537_36_KHTML&amp;gt;&amp;lt;/mxGraphModel&amp;gt;&#xa;    &#xa;  &#xa;  &#xa;    &amp;lt;_mxfile_host_app_diagrams_net_modified_2024_11_20T08_30_00_000Z_agent_Mozilla_5_0_Windows_NT_10_0_Win64_x64_AppleWebKit_537_36_KHTML&amp;gt;&amp;lt;/diagram&amp;gt;&#xa;    &#xa;  &#xa;  &#xa;    &amp;lt;_mxfile_host_app_diagrams_net_modified_2024_11_20T08_30_00_000Z_agent_Mozilla_5_0_Windows_NT_10_0_Win64_x64_AppleWebKit_537_36_KHTML&amp;gt;&amp;lt;/mxfile&amp;gt;&#xa;    &#xa;  &#xa;" style="text;whiteSpace=wrap;html=1;" vertex="1" parent="1">
                    <mxGeometry width="560" height="12110" as="geometry"/>
                </mxCell>
            </root>
        </mxGraphModel>
    </diagram>
</mxfile>